#N canvas 153 88 1197 726 10;
#N canvas 0 22 450 278 (subpatch) 0;
#X array sample 532096 float 2;
#X coords 0 1 532096 -1 200 140 1;
#X restore 15 485 graph;
#X obj 84 229 soundfiler;
#X floatatom 84 255 10 0 0 0 - - -;
#X msg 83 203 read -resize \$1 sample;
#X obj 84 140 bng 15 250 50 0 empty empty empty 17 7 0 10 -262144 -1
-1;
#X obj 84 175 openpanel;
#X obj 318 640 tabread4~ sample;
#X obj 315 749 dac~;
#X obj 316 604 vline~;
#X msg 315 573 \$1 \, \$2 \$3;
#X obj 315 541 pack 0 0 0;
#X obj 314 17 hsl 128 15 0 1 0 0 empty empty empty -2 -8 0 10 -262144
-1 -1 5800 1;
#X obj 289 373 *;
#X floatatom 288 397 10 0 0 0 - - -;
#X obj 275 427 i;
#X obj 197 408 bng 15 250 50 0 empty empty empty 17 7 0 10 -262144
-1 -1;
#X floatatom 444 237 5 0 0 0 - - -;
#X obj 443 300 * 44.1;
#X floatatom 443 330 5 0 0 0 - - -;
#X obj 443 380 +;
#X floatatom 443 407 10 0 0 0 - - -;
#X obj 590 298 *;
#X floatatom 590 237 5 0 0 0 - - -;
#X floatatom 595 337 5 0 0 0 - - -;
#X obj 197 384 metro;
#X obj 234 42 tgl 15 0 empty empty empty 17 7 0 10 -262144 -1 -1 0
1;
#X obj 319 703 *~;
#X obj 514 666 vline~;
#X obj 529 582 - 20;
#X obj 514 608 i;
#X msg 514 636 0 \, 1 20 \, 0 20 \$1;
#X obj 338 471 random;
#X floatatom 319 289 10 0 0 0 - - -;
#X obj 314 518 +;
#X obj 597 441 *;
#X obj 693 401 / 100;
#X floatatom 694 426 5 0 0 0 - - -;
#X obj 175 439 s activa;
#X obj 490 550 r activa;
#X obj 490 583 bng 15 250 50 0 empty empty empty 17 7 0 10 -262144
-1 -1;
#X obj 691 300 r activa;
#X obj 691 323 bng 15 250 50 0 empty empty empty 17 7 0 10 -262144
-1 -1;
#X obj 338 492 t b i;
#X obj 338 427 r activa;
#X obj 338 452 bng 15 250 50 0 empty empty empty 17 7 0 10 -262144
-1 -1;
#X obj 608 368 s duracion;
#X obj 224 321 r duracion;
#X floatatom 224 349 5 0 0 0 - - -;
#X obj 443 352 t b i;
#X text 311 1 punto de inicio;
#X text 504 6 duración en ms;
#X obj 590 263 t b f;
#X text 682 4 cambio al pitch;
#X obj 694 448 t b f;
#X obj 692 348 random;
#X floatatom 724 271 5 0 0 0 - - -;
#X obj 772 302 / 2;
#X floatatom 772 331 5 0 0 0 - - -;
#X obj 773 357 expr 100 - $f1;
#X floatatom 774 385 5 0 0 0 - - -;
#X obj 693 377 +;
#X obj 773 410 t b f;
#X floatatom 598 474 5 0 0 0 - - -;
#X text 701 43 variación al pitch;
#X text 329 47 variación de inicio en ms;
#X obj 330 61 hsl 128 15 0 1000 0 0 empty empty empty -2 -8 0 10 -262144
-1 -1 4400 1;
#X obj 505 21 hsl 128 15 0 100 0 0 empty empty empty -2 -8 0 10 -262144
-1 -1 4300 1;
#X obj 684 21 hsl 128 15 0 3 0 0 empty empty empty -2 -8 0 10 -262144
-1 -1 5000 1;
#X obj 703 59 hsl 128 15 0 100 0 0 empty empty empty -2 -8 0 10 -262144
-1 -1 6700 1;
#X text 327 3;
#X connect 1 0 2 0;
#X connect 2 0 12 1;
#X connect 3 0 1 0;
#X connect 4 0 5 0;
#X connect 5 0 3 0;
#X connect 6 0 26 0;
#X connect 8 0 6 0;
#X connect 9 0 8 0;
#X connect 10 0 9 0;
#X connect 11 0 12 0;
#X connect 12 0 13 0;
#X connect 13 0 14 1;
#X connect 13 0 19 0;
#X connect 14 0 33 0;
#X connect 15 0 14 0;
#X connect 15 0 37 0;
#X connect 16 0 17 0;
#X connect 16 0 21 0;
#X connect 17 0 18 0;
#X connect 18 0 48 0;
#X connect 19 0 20 0;
#X connect 20 0 10 1;
#X connect 21 0 23 0;
#X connect 22 0 51 0;
#X connect 23 0 28 0;
#X connect 23 0 34 0;
#X connect 23 0 45 0;
#X connect 24 0 15 0;
#X connect 25 0 24 0;
#X connect 26 0 7 0;
#X connect 26 0 7 1;
#X connect 27 0 26 1;
#X connect 28 0 29 1;
#X connect 29 0 30 0;
#X connect 30 0 27 0;
#X connect 31 0 42 0;
#X connect 32 0 31 1;
#X connect 33 0 10 0;
#X connect 34 0 10 2;
#X connect 34 0 62 0;
#X connect 35 0 36 0;
#X connect 36 0 53 0;
#X connect 38 0 39 0;
#X connect 39 0 29 0;
#X connect 40 0 41 0;
#X connect 41 0 54 0;
#X connect 42 0 33 0;
#X connect 42 1 33 1;
#X connect 43 0 44 0;
#X connect 44 0 31 0;
#X connect 46 0 47 0;
#X connect 47 0 24 1;
#X connect 48 0 19 0;
#X connect 48 1 19 1;
#X connect 51 0 21 0;
#X connect 51 1 21 1;
#X connect 53 0 34 0;
#X connect 53 1 34 1;
#X connect 54 0 60 0;
#X connect 55 0 54 1;
#X connect 55 0 56 0;
#X connect 56 0 57 0;
#X connect 57 0 58 0;
#X connect 58 0 59 0;
#X connect 59 0 61 0;
#X connect 60 0 35 0;
#X connect 61 0 60 0;
#X connect 61 1 60 1;
#X connect 65 0 32 0;
#X connect 66 0 16 0;
#X connect 67 0 22 0;
#X connect 68 0 55 0;
