#N canvas 44 22 800 552 10;
#X obj 20 47 adc~;
#X obj 22 90 pvu~;
#X obj 24 130 vu 15 120 empty empty -1 -8 0 10 -66577 -1 1 0;
#X obj 109 124 writesf~;
#X msg 105 24 open foo.wav;
#X msg 134 60 start;
#X msg 165 89 stop;
#X obj 262 121 readsf~;
#X msg 264 11 open foo.wav;
#X msg 293 47 start;
#X msg 324 76 stop;
#X obj 261 179 dac~;
#N canvas 0 22 450 278 (subpatch) 0;
#X array sample 718144 float 2;
#X coords 0 1 718144 -1 200 140 1;
#X restore 552 35 graph;
#X obj 395 157 soundfiler;
#X floatatom 395 183 10 0 0 0 - - -;
#X obj 551 335 tabplay~ sample;
#X obj 550 395 dac~;
#X obj 542 275 bng 15 250 50 0 empty empty empty 17 7 0 10 -262144
-1 -1;
#X msg 568 276 stop;
#X msg 615 272 20000;
#X msg 659 273 25000 10000;
#X msg 394 109 read -resize \$1 sample;
#X obj 394 14 bng 15 250 50 0 empty empty empty 17 7 0 10 -262144 -1
-1;
#X obj 394 49 openpanel;
#X obj 140 445 tabread4~ sample;
#X obj 139 397 vline~;
#X obj 137 490 dac~;
#X msg 135 351 \$1 \, \$2 \$3;
#X obj 133 315 pack 0 0 0;
#X floatatom 125 257 10 0 0 0 - - -;
#X floatatom 160 228 10 0 0 0 - - -;
#X floatatom 198 253 10 0 0 0 - - -;
#X obj 82 302 bng 15 250 50 0 empty empty empty 17 7 0 10 -262144 -1
-1;
#X connect 0 0 1 0;
#X connect 0 0 3 0;
#X connect 1 0 2 0;
#X connect 4 0 3 0;
#X connect 5 0 3 0;
#X connect 6 0 3 0;
#X connect 7 0 11 0;
#X connect 7 0 11 1;
#X connect 8 0 7 0;
#X connect 9 0 7 0;
#X connect 10 0 7 0;
#X connect 13 0 14 0;
#X connect 15 0 16 0;
#X connect 15 0 16 1;
#X connect 17 0 15 0;
#X connect 18 0 15 0;
#X connect 19 0 15 0;
#X connect 20 0 15 0;
#X connect 21 0 13 0;
#X connect 22 0 23 0;
#X connect 23 0 21 0;
#X connect 24 0 26 0;
#X connect 24 0 26 1;
#X connect 25 0 24 0;
#X connect 27 0 25 0;
#X connect 28 0 27 0;
#X connect 29 0 28 0;
#X connect 30 0 28 1;
#X connect 31 0 28 2;
#X connect 32 0 28 0;
