#N canvas -42 0 800 574 10;
#X obj 291 68 metro 250;
#X obj 289 45 tgl 15 0 empty empty empty 17 7 0 10 -262144 -1 -1 0
1;
#X floatatom 353 70 5 0 0 0 - - -;
#X obj 291 93 bng 15 250 50 0 empty empty empty 17 7 0 10 -262144 -1
-1;
#X floatatom 290 143 5 0 0 0 - - -;
#X obj 276 209 bng 15 250 50 0 empty empty empty 17 7 0 10 -262144
-1 -1;
#X obj 318 207 bng 15 250 50 0 empty empty empty 17 7 0 10 -262144
-1 -1;
#X obj 366 209 bng 15 250 50 0 empty empty empty 17 7 0 10 -262144
-1 -1;
#X obj 410 208 bng 15 250 50 0 empty empty empty 17 7 0 10 -262144
-1 -1;
#X obj 286 446 osc~;
#X obj 296 642 dac~;
#X floatatom 285 412 5 0 0 0 - - -;
#X obj 275 275 f;
#X floatatom 331 245 5 0 0 0 - - -;
#X obj 314 278 f;
#X floatatom 378 245 5 0 0 0 - - -;
#X obj 361 278 f;
#X floatatom 424 247 5 0 0 0 - - -;
#X obj 407 280 f;
#X floatatom 289 243 5 0 0 0 - - -;
#X obj 293 591 *~;
#X obj 338 564 line~;
#X msg 338 533 \$1 20;
#X obj 342 506 hsl 128 15 0 1 0 0 empty empty empty -2 -8 0 10 -262144
-1 -1 12700 1;
#X obj 289 487 *~;
#X obj 373 441 vline~;
#X msg 371 401 0 \, 1 20 0 \, 0 20 100;
#X msg 372 359 0 \, 1 125 0 \, 0 125 125;
#X msg 385 334 0 \, 1 20 0 \, 0 20 30;
#X msg 456 453 1;
#N canvas 474 70 578 485 penta 0;
#X floatatom 5 38 5 0 0 0 - - -;
#X floatatom 8 -199 5 0 0 0 - - -;
#X obj 43 -145 * 9;
#X obj 44 -115 / 8;
#X floatatom 44 -84 5 0 0 0 - - -;
#X floatatom 95 -87 5 0 0 0 - - -;
#X obj 94 -148 * 5;
#X obj 95 -118 / 4;
#X floatatom 131 -86 5 0 0 0 - - -;
#X obj 130 -147 * 3;
#X obj 131 -117 / 2;
#X floatatom 172 -93 5 0 0 0 - - -;
#X obj 171 -154 * 5;
#X obj 172 -124 / 3;
#X obj 209 -152 * 2;
#X floatatom 215 -90 5 0 0 0 - - -;
#X obj 35 -48 f;
#X obj 81 -47 f;
#X obj 125 -48 f;
#X obj 169 -49 f;
#X obj 214 -44 f;
#X obj -5 -143 * 1;
#X floatatom -2 -99 5 0 0 0 - - -;
#X obj -10 -51 f;
#X floatatom -121 -244 5 0 0 0 - - -;
#X obj -121 -208 select 0 1 2 3 4 5;
#X obj -123 -293 bng 15 250 50 0 empty empty empty 17 7 0 10 -262144
-1 -1;
#X obj -123 -318 inlet;
#X obj 3 72 outlet;
#X obj -122 -270 random 6;
#X obj 11 -236 receive foo;
#X connect 0 0 28 0;
#X connect 1 0 2 0;
#X connect 1 0 6 0;
#X connect 1 0 9 0;
#X connect 1 0 12 0;
#X connect 1 0 14 0;
#X connect 1 0 21 0;
#X connect 2 0 3 0;
#X connect 3 0 4 0;
#X connect 4 0 16 1;
#X connect 5 0 17 1;
#X connect 6 0 7 0;
#X connect 7 0 5 0;
#X connect 8 0 18 1;
#X connect 9 0 10 0;
#X connect 10 0 8 0;
#X connect 11 0 19 1;
#X connect 12 0 13 0;
#X connect 13 0 11 0;
#X connect 14 0 15 0;
#X connect 15 0 20 1;
#X connect 16 0 0 0;
#X connect 17 0 0 0;
#X connect 18 0 0 0;
#X connect 19 0 0 0;
#X connect 20 0 0 0;
#X connect 21 0 22 0;
#X connect 22 0 23 1;
#X connect 23 0 0 0;
#X connect 24 0 25 0;
#X connect 25 0 23 0;
#X connect 25 1 16 0;
#X connect 25 2 17 0;
#X connect 25 3 18 0;
#X connect 25 4 19 0;
#X connect 25 5 20 0;
#X connect 26 0 29 0;
#X connect 27 0 26 0;
#X connect 29 0 24 0;
#X connect 30 0 1 0;
#X restore 415 163 pd penta;
#X obj 411 136 bng 15 250 50 0 empty empty empty 17 7 0 10 -262144
-1 -1;
#X obj 462 81 send foo;
#X floatatom 461 55 5 0 0 0 - - -;
#N canvas 474 70 578 485 penta 0;
#X floatatom 5 38 5 0 0 0 - - -;
#X floatatom 8 -199 5 0 0 0 - - -;
#X obj 43 -145 * 9;
#X obj 44 -115 / 8;
#X floatatom 44 -84 5 0 0 0 - - -;
#X floatatom 95 -87 5 0 0 0 - - -;
#X obj 94 -148 * 5;
#X obj 95 -118 / 4;
#X floatatom 131 -86 5 0 0 0 - - -;
#X obj 130 -147 * 3;
#X obj 131 -117 / 2;
#X floatatom 172 -93 5 0 0 0 - - -;
#X obj 171 -154 * 5;
#X obj 172 -124 / 3;
#X obj 209 -152 * 2;
#X floatatom 215 -90 5 0 0 0 - - -;
#X obj 35 -48 f;
#X obj 81 -47 f;
#X obj 125 -48 f;
#X obj 169 -49 f;
#X obj 214 -44 f;
#X obj -5 -143 * 1;
#X floatatom -2 -99 5 0 0 0 - - -;
#X obj -10 -51 f;
#X floatatom -121 -244 5 0 0 0 - - -;
#X obj -121 -208 select 0 1 2 3 4 5;
#X obj -123 -293 bng 15 250 50 0 empty empty empty 17 7 0 10 -262144
-1 -1;
#X obj -123 -318 inlet;
#X obj 3 72 outlet;
#X obj -122 -270 random 6;
#X obj 11 -236 receive foo;
#X connect 0 0 28 0;
#X connect 1 0 2 0;
#X connect 1 0 6 0;
#X connect 1 0 9 0;
#X connect 1 0 12 0;
#X connect 1 0 14 0;
#X connect 1 0 21 0;
#X connect 2 0 3 0;
#X connect 3 0 4 0;
#X connect 4 0 16 1;
#X connect 5 0 17 1;
#X connect 6 0 7 0;
#X connect 7 0 5 0;
#X connect 8 0 18 1;
#X connect 9 0 10 0;
#X connect 10 0 8 0;
#X connect 11 0 19 1;
#X connect 12 0 13 0;
#X connect 13 0 11 0;
#X connect 14 0 15 0;
#X connect 15 0 20 1;
#X connect 16 0 0 0;
#X connect 17 0 0 0;
#X connect 18 0 0 0;
#X connect 19 0 0 0;
#X connect 20 0 0 0;
#X connect 21 0 22 0;
#X connect 22 0 23 1;
#X connect 23 0 0 0;
#X connect 24 0 25 0;
#X connect 25 0 23 0;
#X connect 25 1 16 0;
#X connect 25 2 17 0;
#X connect 25 3 18 0;
#X connect 25 4 19 0;
#X connect 25 5 20 0;
#X connect 26 0 29 0;
#X connect 27 0 26 0;
#X connect 29 0 24 0;
#X connect 30 0 1 0;
#X restore 479 169 pd penta;
#X obj 475 142 bng 15 250 50 0 empty empty empty 17 7 0 10 -262144
-1 -1;
#N canvas 474 70 578 485 penta 0;
#X floatatom 5 38 5 0 0 0 - - -;
#X floatatom 8 -199 5 0 0 0 - - -;
#X obj 43 -145 * 9;
#X obj 44 -115 / 8;
#X floatatom 44 -84 5 0 0 0 - - -;
#X floatatom 95 -87 5 0 0 0 - - -;
#X obj 94 -148 * 5;
#X obj 95 -118 / 4;
#X floatatom 131 -86 5 0 0 0 - - -;
#X obj 130 -147 * 3;
#X obj 131 -117 / 2;
#X floatatom 172 -93 5 0 0 0 - - -;
#X obj 171 -154 * 5;
#X obj 172 -124 / 3;
#X obj 209 -152 * 2;
#X floatatom 215 -90 5 0 0 0 - - -;
#X obj 35 -48 f;
#X obj 81 -47 f;
#X obj 125 -48 f;
#X obj 169 -49 f;
#X obj 214 -44 f;
#X obj -5 -143 * 1;
#X floatatom -2 -99 5 0 0 0 - - -;
#X obj -10 -51 f;
#X floatatom -121 -244 5 0 0 0 - - -;
#X obj -121 -208 select 0 1 2 3 4 5;
#X obj -123 -293 bng 15 250 50 0 empty empty empty 17 7 0 10 -262144
-1 -1;
#X obj -123 -318 inlet;
#X obj 3 72 outlet;
#X obj -122 -270 random 6;
#X obj 11 -236 receive foo;
#X connect 0 0 28 0;
#X connect 1 0 2 0;
#X connect 1 0 6 0;
#X connect 1 0 9 0;
#X connect 1 0 12 0;
#X connect 1 0 14 0;
#X connect 1 0 21 0;
#X connect 2 0 3 0;
#X connect 3 0 4 0;
#X connect 4 0 16 1;
#X connect 5 0 17 1;
#X connect 6 0 7 0;
#X connect 7 0 5 0;
#X connect 8 0 18 1;
#X connect 9 0 10 0;
#X connect 10 0 8 0;
#X connect 11 0 19 1;
#X connect 12 0 13 0;
#X connect 13 0 11 0;
#X connect 14 0 15 0;
#X connect 15 0 20 1;
#X connect 16 0 0 0;
#X connect 17 0 0 0;
#X connect 18 0 0 0;
#X connect 19 0 0 0;
#X connect 20 0 0 0;
#X connect 21 0 22 0;
#X connect 22 0 23 1;
#X connect 23 0 0 0;
#X connect 24 0 25 0;
#X connect 25 0 23 0;
#X connect 25 1 16 0;
#X connect 25 2 17 0;
#X connect 25 3 18 0;
#X connect 25 4 19 0;
#X connect 25 5 20 0;
#X connect 26 0 29 0;
#X connect 27 0 26 0;
#X connect 29 0 24 0;
#X connect 30 0 1 0;
#X restore 551 166 pd penta;
#X obj 547 139 bng 15 250 50 0 empty empty empty 17 7 0 10 -262144
-1 -1;
#N canvas 474 70 578 485 penta 0;
#X floatatom 5 38 5 0 0 0 - - -;
#X floatatom 8 -199 5 0 0 0 - - -;
#X obj 43 -145 * 9;
#X obj 44 -115 / 8;
#X floatatom 44 -84 5 0 0 0 - - -;
#X floatatom 95 -87 5 0 0 0 - - -;
#X obj 94 -148 * 5;
#X obj 95 -118 / 4;
#X floatatom 131 -86 5 0 0 0 - - -;
#X obj 130 -147 * 3;
#X obj 131 -117 / 2;
#X floatatom 172 -93 5 0 0 0 - - -;
#X obj 171 -154 * 5;
#X obj 172 -124 / 3;
#X obj 209 -152 * 2;
#X floatatom 215 -90 5 0 0 0 - - -;
#X obj 35 -48 f;
#X obj 81 -47 f;
#X obj 125 -48 f;
#X obj 169 -49 f;
#X obj 214 -44 f;
#X obj -5 -143 * 1;
#X floatatom -2 -99 5 0 0 0 - - -;
#X obj -10 -51 f;
#X floatatom -121 -244 5 0 0 0 - - -;
#X obj -121 -208 select 0 1 2 3 4 5;
#X obj -123 -293 bng 15 250 50 0 empty empty empty 17 7 0 10 -262144
-1 -1;
#X obj -123 -318 inlet;
#X obj 3 72 outlet;
#X obj -122 -270 random 6;
#X obj 11 -236 receive foo;
#X connect 0 0 28 0;
#X connect 1 0 2 0;
#X connect 1 0 6 0;
#X connect 1 0 9 0;
#X connect 1 0 12 0;
#X connect 1 0 14 0;
#X connect 1 0 21 0;
#X connect 2 0 3 0;
#X connect 3 0 4 0;
#X connect 4 0 16 1;
#X connect 5 0 17 1;
#X connect 6 0 7 0;
#X connect 7 0 5 0;
#X connect 8 0 18 1;
#X connect 9 0 10 0;
#X connect 10 0 8 0;
#X connect 11 0 19 1;
#X connect 12 0 13 0;
#X connect 13 0 11 0;
#X connect 14 0 15 0;
#X connect 15 0 20 1;
#X connect 16 0 0 0;
#X connect 17 0 0 0;
#X connect 18 0 0 0;
#X connect 19 0 0 0;
#X connect 20 0 0 0;
#X connect 21 0 22 0;
#X connect 22 0 23 1;
#X connect 23 0 0 0;
#X connect 24 0 25 0;
#X connect 25 0 23 0;
#X connect 25 1 16 0;
#X connect 25 2 17 0;
#X connect 25 3 18 0;
#X connect 25 4 19 0;
#X connect 25 5 20 0;
#X connect 26 0 29 0;
#X connect 27 0 26 0;
#X connect 29 0 24 0;
#X connect 30 0 1 0;
#X restore 615 172 pd penta;
#X obj 611 145 bng 15 250 50 0 empty empty empty 17 7 0 10 -262144
-1 -1;
#X obj 291 117 counter 7;
#X obj 292 174 select 0 1 2 3 4 5 6 7;
#X obj 539 218 bng 15 250 50 0 empty empty empty 17 7 0 10 -262144
-1 -1;
#X obj 581 216 bng 15 250 50 0 empty empty empty 17 7 0 10 -262144
-1 -1;
#X obj 629 218 bng 15 250 50 0 empty empty empty 17 7 0 10 -262144
-1 -1;
#X obj 673 217 bng 15 250 50 0 empty empty empty 17 7 0 10 -262144
-1 -1;
#X obj 538 284 f;
#X floatatom 594 254 5 0 0 0 - - -;
#X obj 577 287 f;
#X floatatom 641 254 5 0 0 0 - - -;
#X obj 624 287 f;
#X floatatom 687 256 5 0 0 0 - - -;
#X obj 670 289 f;
#X floatatom 552 252 5 0 0 0 - - -;
#N canvas 474 70 578 485 penta 0;
#X floatatom 5 38 5 0 0 0 - - -;
#X floatatom 8 -199 5 0 0 0 - - -;
#X obj 43 -145 * 9;
#X obj 44 -115 / 8;
#X floatatom 44 -84 5 0 0 0 - - -;
#X floatatom 95 -87 5 0 0 0 - - -;
#X obj 94 -148 * 5;
#X obj 95 -118 / 4;
#X floatatom 131 -86 5 0 0 0 - - -;
#X obj 130 -147 * 3;
#X obj 131 -117 / 2;
#X floatatom 172 -93 5 0 0 0 - - -;
#X obj 171 -154 * 5;
#X obj 172 -124 / 3;
#X obj 209 -152 * 2;
#X floatatom 215 -90 5 0 0 0 - - -;
#X obj 35 -48 f;
#X obj 81 -47 f;
#X obj 125 -48 f;
#X obj 169 -49 f;
#X obj 214 -44 f;
#X obj -5 -143 * 1;
#X floatatom -2 -99 5 0 0 0 - - -;
#X obj -10 -51 f;
#X floatatom -121 -244 5 0 0 0 - - -;
#X obj -121 -208 select 0 1 2 3 4 5;
#X obj -123 -293 bng 15 250 50 0 empty empty empty 17 7 0 10 -262144
-1 -1;
#X obj -123 -318 inlet;
#X obj 3 72 outlet;
#X obj -122 -270 random 6;
#X obj 11 -236 receive foo;
#X connect 0 0 28 0;
#X connect 1 0 2 0;
#X connect 1 0 6 0;
#X connect 1 0 9 0;
#X connect 1 0 12 0;
#X connect 1 0 14 0;
#X connect 1 0 21 0;
#X connect 2 0 3 0;
#X connect 3 0 4 0;
#X connect 4 0 16 1;
#X connect 5 0 17 1;
#X connect 6 0 7 0;
#X connect 7 0 5 0;
#X connect 8 0 18 1;
#X connect 9 0 10 0;
#X connect 10 0 8 0;
#X connect 11 0 19 1;
#X connect 12 0 13 0;
#X connect 13 0 11 0;
#X connect 14 0 15 0;
#X connect 15 0 20 1;
#X connect 16 0 0 0;
#X connect 17 0 0 0;
#X connect 18 0 0 0;
#X connect 19 0 0 0;
#X connect 20 0 0 0;
#X connect 21 0 22 0;
#X connect 22 0 23 1;
#X connect 23 0 0 0;
#X connect 24 0 25 0;
#X connect 25 0 23 0;
#X connect 25 1 16 0;
#X connect 25 2 17 0;
#X connect 25 3 18 0;
#X connect 25 4 19 0;
#X connect 25 5 20 0;
#X connect 26 0 29 0;
#X connect 27 0 26 0;
#X connect 29 0 24 0;
#X connect 30 0 1 0;
#X restore 678 172 pd penta;
#X obj 674 145 bng 15 250 50 0 empty empty empty 17 7 0 10 -262144
-1 -1;
#N canvas 474 70 578 485 penta 0;
#X floatatom 5 38 5 0 0 0 - - -;
#X floatatom 8 -199 5 0 0 0 - - -;
#X obj 43 -145 * 9;
#X obj 44 -115 / 8;
#X floatatom 44 -84 5 0 0 0 - - -;
#X floatatom 95 -87 5 0 0 0 - - -;
#X obj 94 -148 * 5;
#X obj 95 -118 / 4;
#X floatatom 131 -86 5 0 0 0 - - -;
#X obj 130 -147 * 3;
#X obj 131 -117 / 2;
#X floatatom 172 -93 5 0 0 0 - - -;
#X obj 171 -154 * 5;
#X obj 172 -124 / 3;
#X obj 209 -152 * 2;
#X floatatom 215 -90 5 0 0 0 - - -;
#X obj 35 -48 f;
#X obj 81 -47 f;
#X obj 125 -48 f;
#X obj 169 -49 f;
#X obj 214 -44 f;
#X obj -5 -143 * 1;
#X floatatom -2 -99 5 0 0 0 - - -;
#X obj -10 -51 f;
#X floatatom -121 -244 5 0 0 0 - - -;
#X obj -121 -208 select 0 1 2 3 4 5;
#X obj -123 -293 bng 15 250 50 0 empty empty empty 17 7 0 10 -262144
-1 -1;
#X obj -123 -318 inlet;
#X obj 3 72 outlet;
#X obj -122 -270 random 6;
#X obj 11 -236 receive foo;
#X connect 0 0 28 0;
#X connect 1 0 2 0;
#X connect 1 0 6 0;
#X connect 1 0 9 0;
#X connect 1 0 12 0;
#X connect 1 0 14 0;
#X connect 1 0 21 0;
#X connect 2 0 3 0;
#X connect 3 0 4 0;
#X connect 4 0 16 1;
#X connect 5 0 17 1;
#X connect 6 0 7 0;
#X connect 7 0 5 0;
#X connect 8 0 18 1;
#X connect 9 0 10 0;
#X connect 10 0 8 0;
#X connect 11 0 19 1;
#X connect 12 0 13 0;
#X connect 13 0 11 0;
#X connect 14 0 15 0;
#X connect 15 0 20 1;
#X connect 16 0 0 0;
#X connect 17 0 0 0;
#X connect 18 0 0 0;
#X connect 19 0 0 0;
#X connect 20 0 0 0;
#X connect 21 0 22 0;
#X connect 22 0 23 1;
#X connect 23 0 0 0;
#X connect 24 0 25 0;
#X connect 25 0 23 0;
#X connect 25 1 16 0;
#X connect 25 2 17 0;
#X connect 25 3 18 0;
#X connect 25 4 19 0;
#X connect 25 5 20 0;
#X connect 26 0 29 0;
#X connect 27 0 26 0;
#X connect 29 0 24 0;
#X connect 30 0 1 0;
#X restore 742 178 pd penta;
#X obj 738 151 bng 15 250 50 0 empty empty empty 17 7 0 10 -262144
-1 -1;
#N canvas 474 70 578 485 penta 0;
#X floatatom 5 38 5 0 0 0 - - -;
#X floatatom 8 -199 5 0 0 0 - - -;
#X obj 43 -145 * 9;
#X obj 44 -115 / 8;
#X floatatom 44 -84 5 0 0 0 - - -;
#X floatatom 95 -87 5 0 0 0 - - -;
#X obj 94 -148 * 5;
#X obj 95 -118 / 4;
#X floatatom 131 -86 5 0 0 0 - - -;
#X obj 130 -147 * 3;
#X obj 131 -117 / 2;
#X floatatom 172 -93 5 0 0 0 - - -;
#X obj 171 -154 * 5;
#X obj 172 -124 / 3;
#X obj 209 -152 * 2;
#X floatatom 215 -90 5 0 0 0 - - -;
#X obj 35 -48 f;
#X obj 81 -47 f;
#X obj 125 -48 f;
#X obj 169 -49 f;
#X obj 214 -44 f;
#X obj -5 -143 * 1;
#X floatatom -2 -99 5 0 0 0 - - -;
#X obj -10 -51 f;
#X floatatom -121 -244 5 0 0 0 - - -;
#X obj -121 -208 select 0 1 2 3 4 5;
#X obj -123 -293 bng 15 250 50 0 empty empty empty 17 7 0 10 -262144
-1 -1;
#X obj -123 -318 inlet;
#X obj 3 72 outlet;
#X obj -122 -270 random 6;
#X obj 11 -236 receive foo;
#X connect 0 0 28 0;
#X connect 1 0 2 0;
#X connect 1 0 6 0;
#X connect 1 0 9 0;
#X connect 1 0 12 0;
#X connect 1 0 14 0;
#X connect 1 0 21 0;
#X connect 2 0 3 0;
#X connect 3 0 4 0;
#X connect 4 0 16 1;
#X connect 5 0 17 1;
#X connect 6 0 7 0;
#X connect 7 0 5 0;
#X connect 8 0 18 1;
#X connect 9 0 10 0;
#X connect 10 0 8 0;
#X connect 11 0 19 1;
#X connect 12 0 13 0;
#X connect 13 0 11 0;
#X connect 14 0 15 0;
#X connect 15 0 20 1;
#X connect 16 0 0 0;
#X connect 17 0 0 0;
#X connect 18 0 0 0;
#X connect 19 0 0 0;
#X connect 20 0 0 0;
#X connect 21 0 22 0;
#X connect 22 0 23 1;
#X connect 23 0 0 0;
#X connect 24 0 25 0;
#X connect 25 0 23 0;
#X connect 25 1 16 0;
#X connect 25 2 17 0;
#X connect 25 3 18 0;
#X connect 25 4 19 0;
#X connect 25 5 20 0;
#X connect 26 0 29 0;
#X connect 27 0 26 0;
#X connect 29 0 24 0;
#X connect 30 0 1 0;
#X restore 814 175 pd penta;
#X obj 810 148 bng 15 250 50 0 empty empty empty 17 7 0 10 -262144
-1 -1;
#N canvas 474 70 578 485 penta 0;
#X floatatom 5 38 5 0 0 0 - - -;
#X floatatom 8 -199 5 0 0 0 - - -;
#X obj 43 -145 * 9;
#X obj 44 -115 / 8;
#X floatatom 44 -84 5 0 0 0 - - -;
#X floatatom 95 -87 5 0 0 0 - - -;
#X obj 94 -148 * 5;
#X obj 95 -118 / 4;
#X floatatom 131 -86 5 0 0 0 - - -;
#X obj 130 -147 * 3;
#X obj 131 -117 / 2;
#X floatatom 172 -93 5 0 0 0 - - -;
#X obj 171 -154 * 5;
#X obj 172 -124 / 3;
#X obj 209 -152 * 2;
#X floatatom 215 -90 5 0 0 0 - - -;
#X obj 35 -48 f;
#X obj 81 -47 f;
#X obj 125 -48 f;
#X obj 169 -49 f;
#X obj 214 -44 f;
#X obj -5 -143 * 1;
#X floatatom -2 -99 5 0 0 0 - - -;
#X obj -10 -51 f;
#X floatatom -121 -244 5 0 0 0 - - -;
#X obj -121 -208 select 0 1 2 3 4 5;
#X obj -123 -293 bng 15 250 50 0 empty empty empty 17 7 0 10 -262144
-1 -1;
#X obj -123 -318 inlet;
#X obj 3 72 outlet;
#X obj -122 -270 random 6;
#X obj 11 -236 receive foo;
#X connect 0 0 28 0;
#X connect 1 0 2 0;
#X connect 1 0 6 0;
#X connect 1 0 9 0;
#X connect 1 0 12 0;
#X connect 1 0 14 0;
#X connect 1 0 21 0;
#X connect 2 0 3 0;
#X connect 3 0 4 0;
#X connect 4 0 16 1;
#X connect 5 0 17 1;
#X connect 6 0 7 0;
#X connect 7 0 5 0;
#X connect 8 0 18 1;
#X connect 9 0 10 0;
#X connect 10 0 8 0;
#X connect 11 0 19 1;
#X connect 12 0 13 0;
#X connect 13 0 11 0;
#X connect 14 0 15 0;
#X connect 15 0 20 1;
#X connect 16 0 0 0;
#X connect 17 0 0 0;
#X connect 18 0 0 0;
#X connect 19 0 0 0;
#X connect 20 0 0 0;
#X connect 21 0 22 0;
#X connect 22 0 23 1;
#X connect 23 0 0 0;
#X connect 24 0 25 0;
#X connect 25 0 23 0;
#X connect 25 1 16 0;
#X connect 25 2 17 0;
#X connect 25 3 18 0;
#X connect 25 4 19 0;
#X connect 25 5 20 0;
#X connect 26 0 29 0;
#X connect 27 0 26 0;
#X connect 29 0 24 0;
#X connect 30 0 1 0;
#X restore 873 179 pd penta;
#X obj 869 152 bng 15 250 50 0 empty empty empty 17 7 0 10 -262144
-1 -1;
#X obj 666 509 click~;
#X obj 254 146 s bar;
#X obj 674 338 r bar;
#X floatatom 669 369 5 0 0 0 - - -;
#X obj 669 401 select 0 1 2 3 4 5 6 7;
#X obj 666 534 *~ 20;
#X obj 670 452 spigot;
#X obj 701 431 tgl 15 0 empty empty empty 17 7 0 10 -262144 -1 -1 1
1;
#X obj 713 452 spigot;
#X obj 744 431 tgl 15 0 empty empty empty 17 7 0 10 -262144 -1 -1 1
1;
#X obj 758 453 spigot;
#X obj 789 432 tgl 15 0 empty empty empty 17 7 0 10 -262144 -1 -1 1
1;
#X obj 801 453 spigot;
#X obj 832 432 tgl 15 0 empty empty empty 17 7 0 10 -262144 -1 -1 0
1;
#X obj 845 454 spigot;
#X obj 876 433 tgl 15 0 empty empty empty 17 7 0 10 -262144 -1 -1 0
1;
#X obj 888 454 spigot;
#X obj 919 433 tgl 15 0 empty empty empty 17 7 0 10 -262144 -1 -1 0
1;
#X obj 933 455 spigot;
#X obj 964 434 tgl 15 0 empty empty empty 17 7 0 10 -262144 -1 -1 1
1;
#X obj 976 455 spigot;
#X obj 1007 434 tgl 15 0 empty empty empty 17 7 0 10 -262144 -1 -1
0 1;
#X obj 666 556 r bar;
#X floatatom 661 587 5 0 0 0 - - -;
#X obj 661 619 select 0 1 2 3 4 5 6 7;
#X obj 657 843 *~ 20;
#X obj 662 670 spigot;
#X obj 693 649 tgl 15 0 empty empty empty 17 7 0 10 -262144 -1 -1 1
1;
#X obj 705 670 spigot;
#X obj 736 649 tgl 15 0 empty empty empty 17 7 0 10 -262144 -1 -1 0
1;
#X obj 750 671 spigot;
#X obj 781 650 tgl 15 0 empty empty empty 17 7 0 10 -262144 -1 -1 0
1;
#X obj 793 671 spigot;
#X obj 824 650 tgl 15 0 empty empty empty 17 7 0 10 -262144 -1 -1 1
1;
#X obj 837 672 spigot;
#X obj 868 651 tgl 15 0 empty empty empty 17 7 0 10 -262144 -1 -1 0
1;
#X obj 880 672 spigot;
#X obj 911 651 tgl 15 0 empty empty empty 17 7 0 10 -262144 -1 -1 1
1;
#X obj 925 673 spigot;
#X obj 956 652 tgl 15 0 empty empty empty 17 7 0 10 -262144 -1 -1 0
1;
#X obj 968 673 spigot;
#X obj 999 652 tgl 15 0 empty empty empty 17 7 0 10 -262144 -1 -1 1
1;
#X obj 631 754 noise~;
#X obj 637 795 *~;
#X obj 680 776 vline~;
#X msg 712 749 0 \, 1 20 0 \, 0 20 40;
#N canvas 474 70 578 485 penta 0;
#X floatatom 5 38 5 0 0 0 - - -;
#X floatatom 8 -199 5 0 0 0 - - -;
#X obj 43 -145 * 9;
#X obj 44 -115 / 8;
#X floatatom 44 -84 5 0 0 0 - - -;
#X floatatom 95 -87 5 0 0 0 - - -;
#X obj 94 -148 * 5;
#X obj 95 -118 / 4;
#X floatatom 131 -86 5 0 0 0 - - -;
#X obj 130 -147 * 3;
#X obj 131 -117 / 2;
#X floatatom 172 -93 5 0 0 0 - - -;
#X obj 171 -154 * 5;
#X obj 172 -124 / 3;
#X obj 209 -152 * 2;
#X floatatom 215 -90 5 0 0 0 - - -;
#X obj 35 -48 f;
#X obj 81 -47 f;
#X obj 125 -48 f;
#X obj 169 -49 f;
#X obj 214 -44 f;
#X obj -5 -143 * 1;
#X floatatom -2 -99 5 0 0 0 - - -;
#X obj -10 -51 f;
#X floatatom -121 -244 5 0 0 0 - - -;
#X obj -121 -208 select 0 1 2 3 4 5;
#X obj -123 -293 bng 15 250 50 0 empty empty empty 17 7 0 10 -262144
-1 -1;
#X obj -123 -318 inlet;
#X obj 3 72 outlet;
#X obj -122 -270 random 6;
#X obj 11 -236 receive foo;
#X connect 0 0 28 0;
#X connect 1 0 2 0;
#X connect 1 0 6 0;
#X connect 1 0 9 0;
#X connect 1 0 12 0;
#X connect 1 0 14 0;
#X connect 1 0 21 0;
#X connect 2 0 3 0;
#X connect 3 0 4 0;
#X connect 4 0 16 1;
#X connect 5 0 17 1;
#X connect 6 0 7 0;
#X connect 7 0 5 0;
#X connect 8 0 18 1;
#X connect 9 0 10 0;
#X connect 10 0 8 0;
#X connect 11 0 19 1;
#X connect 12 0 13 0;
#X connect 13 0 11 0;
#X connect 14 0 15 0;
#X connect 15 0 20 1;
#X connect 16 0 0 0;
#X connect 17 0 0 0;
#X connect 18 0 0 0;
#X connect 19 0 0 0;
#X connect 20 0 0 0;
#X connect 21 0 22 0;
#X connect 22 0 23 1;
#X connect 23 0 0 0;
#X connect 24 0 25 0;
#X connect 25 0 23 0;
#X connect 25 1 16 0;
#X connect 25 2 17 0;
#X connect 25 3 18 0;
#X connect 25 4 19 0;
#X connect 25 5 20 0;
#X connect 26 0 29 0;
#X connect 27 0 26 0;
#X connect 29 0 24 0;
#X connect 30 0 1 0;
#X restore 120 168 pd penta;
#X obj 116 141 bng 15 250 50 0 empty empty empty 17 7 0 10 -262144
-1 -1;
#X floatatom 131 213 5 0 0 0 - - -;
#X obj 134 249 * 4;
#X obj 137 288 phasor~;
#X obj 87 435 *~;
#X obj 171 389 vline~;
#X msg 169 349 0 \, 1 20 0 \, 0 20 100;
#X obj 122 52 random 4;
#X obj 127 86 select 1;
#X obj 157 119 delay 125;
#X connect 0 0 3 0;
#X connect 1 0 0 0;
#X connect 2 0 0 1;
#X connect 3 0 26 0;
#X connect 3 0 40 0;
#X connect 3 0 116 0;
#X connect 4 0 41 0;
#X connect 5 0 12 0;
#X connect 6 0 14 0;
#X connect 7 0 16 0;
#X connect 8 0 18 0;
#X connect 9 0 24 0;
#X connect 11 0 9 0;
#X connect 12 0 11 0;
#X connect 13 0 14 1;
#X connect 14 0 11 0;
#X connect 15 0 16 1;
#X connect 16 0 11 0;
#X connect 17 0 18 1;
#X connect 18 0 11 0;
#X connect 19 0 12 1;
#X connect 20 0 10 0;
#X connect 20 0 10 1;
#X connect 21 0 20 1;
#X connect 22 0 21 0;
#X connect 23 0 22 0;
#X connect 24 0 20 0;
#X connect 25 0 24 1;
#X connect 26 0 25 0;
#X connect 27 0 25 0;
#X connect 28 0 25 0;
#X connect 29 0 25 0;
#X connect 30 0 19 0;
#X connect 31 0 30 0;
#X connect 33 0 32 0;
#X connect 34 0 13 0;
#X connect 35 0 34 0;
#X connect 36 0 15 0;
#X connect 37 0 36 0;
#X connect 38 0 17 0;
#X connect 39 0 38 0;
#X connect 40 0 4 0;
#X connect 40 0 63 0;
#X connect 41 0 5 0;
#X connect 41 1 6 0;
#X connect 41 2 7 0;
#X connect 41 3 8 0;
#X connect 41 4 42 0;
#X connect 41 5 43 0;
#X connect 41 6 44 0;
#X connect 41 7 45 0;
#X connect 42 0 46 0;
#X connect 43 0 48 0;
#X connect 44 0 50 0;
#X connect 45 0 52 0;
#X connect 46 0 11 0;
#X connect 47 0 48 1;
#X connect 48 0 11 0;
#X connect 49 0 50 1;
#X connect 50 0 11 0;
#X connect 51 0 52 1;
#X connect 52 0 11 0;
#X connect 53 0 46 1;
#X connect 54 0 53 0;
#X connect 55 0 54 0;
#X connect 56 0 47 0;
#X connect 57 0 56 0;
#X connect 58 0 49 0;
#X connect 59 0 58 0;
#X connect 60 0 51 0;
#X connect 61 0 60 0;
#X connect 62 0 67 0;
#X connect 64 0 65 0;
#X connect 65 0 66 0;
#X connect 66 0 68 0;
#X connect 66 1 70 0;
#X connect 66 2 72 0;
#X connect 66 3 74 0;
#X connect 66 4 76 0;
#X connect 66 5 78 0;
#X connect 66 6 80 0;
#X connect 66 7 82 0;
#X connect 67 0 20 0;
#X connect 68 0 62 0;
#X connect 69 0 68 1;
#X connect 70 0 62 0;
#X connect 71 0 70 1;
#X connect 72 0 62 0;
#X connect 73 0 72 1;
#X connect 74 0 62 0;
#X connect 75 0 74 1;
#X connect 76 0 62 0;
#X connect 77 0 76 1;
#X connect 78 0 62 0;
#X connect 79 0 78 1;
#X connect 80 0 62 0;
#X connect 81 0 80 1;
#X connect 82 0 62 0;
#X connect 83 0 82 1;
#X connect 84 0 85 0;
#X connect 85 0 86 0;
#X connect 86 0 88 0;
#X connect 86 1 90 0;
#X connect 86 2 92 0;
#X connect 86 3 94 0;
#X connect 86 4 96 0;
#X connect 86 5 98 0;
#X connect 86 6 100 0;
#X connect 86 7 102 0;
#X connect 88 0 107 0;
#X connect 89 0 88 1;
#X connect 90 0 107 0;
#X connect 91 0 90 1;
#X connect 92 0 107 0;
#X connect 93 0 92 1;
#X connect 94 0 107 0;
#X connect 95 0 94 1;
#X connect 96 0 107 0;
#X connect 97 0 96 1;
#X connect 98 0 107 0;
#X connect 99 0 98 1;
#X connect 100 0 107 0;
#X connect 101 0 100 1;
#X connect 102 0 107 0;
#X connect 103 0 102 1;
#X connect 104 0 105 0;
#X connect 105 0 20 0;
#X connect 106 0 105 1;
#X connect 107 0 106 0;
#X connect 108 0 110 0;
#X connect 109 0 108 0;
#X connect 109 0 115 0;
#X connect 110 0 111 0;
#X connect 111 0 112 0;
#X connect 112 0 113 0;
#X connect 113 0 20 0;
#X connect 114 0 113 1;
#X connect 115 0 114 0;
#X connect 116 0 117 0;
#X connect 117 0 109 0;
#X connect 117 0 118 0;
#X connect 118 0 109 0;
