#N canvas 43 52 1208 739 10;
#X obj 49 159 osc~;
#X obj 49 199 *~ 0;
#X floatatom 88 206 5 0 0 0 - - -;
#X obj 52 250 dac~;
#X floatatom 48 125 5 0 0 0 - - -;
#X obj 50 16 key;
#X floatatom 58 40 5 0 0 0 - - -;
#X text 116 25 a=97 s=115 d=100 f=102;
#X obj 48 67 select 97 115 100 102;
#X msg 46 94 220;
#X msg 81 95 330;
#X msg 114 94 440;
#X msg 148 94 550;
#X obj 291 68 metro 250;
#X obj 289 45 tgl 15 0 empty empty empty 17 7 0 10 -262144 -1 -1 0
1;
#X floatatom 353 70 5 0 0 0 - - -;
#X obj 291 93 bng 15 250 50 0 empty empty empty 17 7 0 10 -262144 -1
-1;
#X floatatom 290 143 5 0 0 0 - - -;
#X obj 291 117 counter 3;
#X obj 292 174 select 0 1 2 3;
#X obj 276 209 bng 15 250 50 0 empty empty empty 17 7 0 10 -262144
-1 -1;
#X obj 318 207 bng 15 250 50 0 empty empty empty 17 7 0 10 -262144
-1 -1;
#X obj 366 209 bng 15 250 50 0 empty empty empty 17 7 0 10 -262144
-1 -1;
#X obj 410 208 bng 15 250 50 0 empty empty empty 17 7 0 10 -262144
-1 -1;
#X obj 290 382 osc~;
#X obj 290 422 *~ 0;
#X floatatom 329 429 5 0 0 0 - - -;
#X obj 293 473 dac~;
#X floatatom 289 348 5 0 0 0 - - -;
#X floatatom 736 617 5 0 0 0 - - -;
#X obj 275 275 f;
#X floatatom 331 245 5 0 0 0 - - -;
#X obj 314 278 f;
#X floatatom 378 245 5 0 0 0 - - -;
#X obj 361 278 f;
#X floatatom 424 247 5 0 0 0 - - -;
#X obj 407 280 f;
#X obj 592 133 bng 15 250 50 0 empty empty empty 17 7 0 10 -262144
-1 -1;
#X obj 604 229 mtof;
#X obj 597 157 random 50;
#X obj 599 184 + 40;
#X floatatom 604 205 5 0 0 0 - - -;
#X floatatom 739 380 5 0 0 0 - - -;
#X obj 774 434 * 9;
#X obj 775 464 / 8;
#X floatatom 775 495 5 0 0 0 - - -;
#X floatatom 826 492 5 0 0 0 - - -;
#X obj 825 431 * 5;
#X obj 826 461 / 4;
#X floatatom 862 493 5 0 0 0 - - -;
#X obj 861 432 * 3;
#X obj 862 462 / 2;
#X floatatom 903 486 5 0 0 0 - - -;
#X obj 902 425 * 5;
#X obj 903 455 / 3;
#X obj 940 427 * 2;
#X floatatom 946 489 5 0 0 0 - - -;
#X obj 766 531 f;
#X obj 812 532 f;
#X obj 856 531 f;
#X obj 900 530 f;
#X obj 945 535 f;
#X obj 726 436 * 1;
#X floatatom 729 480 5 0 0 0 - - -;
#X obj 721 528 f;
#X obj 609 309 random 6;
#X floatatom 610 335 5 0 0 0 - - -;
#X obj 610 371 select 0 1 2 3 4 5;
#X obj 608 286 bng 15 250 50 0 empty empty empty 17 7 0 10 -262144
-1 -1;
#X floatatom 289 243 5 0 0 0 - - -;
#X text 590 107 genera notas midi aleatorias;
#X text 607 264 genera notas aleatorias en la pentatónica mayor;
#X text 52 -17 controlo con el teclado;
#X text 288 -3 un secuenciador de pasos;
#X obj 583 -4 bng 15 250 50 0 empty empty empty 17 7 0 10 -262144 -1
-1;
#X floatatom 595 68 5 0 0 0 - - -;
#X text 581 -30 genera frecuencias aleatorias;
#X obj 588 20 random 2000;
#X obj 590 47 + 110;
#X connect 0 0 1 0;
#X connect 1 0 3 0;
#X connect 1 0 3 1;
#X connect 2 0 1 1;
#X connect 4 0 0 0;
#X connect 5 0 6 0;
#X connect 5 0 8 0;
#X connect 8 0 9 0;
#X connect 8 1 10 0;
#X connect 8 2 11 0;
#X connect 8 3 12 0;
#X connect 9 0 4 0;
#X connect 10 0 4 0;
#X connect 11 0 4 0;
#X connect 12 0 4 0;
#X connect 13 0 16 0;
#X connect 14 0 13 0;
#X connect 15 0 13 1;
#X connect 16 0 18 0;
#X connect 17 0 19 0;
#X connect 18 0 17 0;
#X connect 19 0 20 0;
#X connect 19 1 21 0;
#X connect 19 2 22 0;
#X connect 19 3 23 0;
#X connect 20 0 30 0;
#X connect 21 0 32 0;
#X connect 22 0 34 0;
#X connect 23 0 36 0;
#X connect 24 0 25 0;
#X connect 25 0 27 0;
#X connect 25 0 27 1;
#X connect 26 0 25 1;
#X connect 28 0 24 0;
#X connect 30 0 28 0;
#X connect 31 0 32 1;
#X connect 32 0 28 0;
#X connect 33 0 34 1;
#X connect 34 0 28 0;
#X connect 35 0 36 1;
#X connect 36 0 28 0;
#X connect 37 0 39 0;
#X connect 39 0 40 0;
#X connect 40 0 41 0;
#X connect 41 0 38 0;
#X connect 42 0 43 0;
#X connect 42 0 47 0;
#X connect 42 0 50 0;
#X connect 42 0 53 0;
#X connect 42 0 55 0;
#X connect 42 0 62 0;
#X connect 43 0 44 0;
#X connect 44 0 45 0;
#X connect 45 0 57 1;
#X connect 46 0 58 1;
#X connect 47 0 48 0;
#X connect 48 0 46 0;
#X connect 49 0 59 1;
#X connect 50 0 51 0;
#X connect 51 0 49 0;
#X connect 52 0 60 1;
#X connect 53 0 54 0;
#X connect 54 0 52 0;
#X connect 55 0 56 0;
#X connect 56 0 61 1;
#X connect 57 0 29 0;
#X connect 58 0 29 0;
#X connect 59 0 29 0;
#X connect 60 0 29 0;
#X connect 61 0 29 0;
#X connect 62 0 63 0;
#X connect 63 0 64 1;
#X connect 64 0 29 0;
#X connect 65 0 66 0;
#X connect 66 0 67 0;
#X connect 67 0 64 0;
#X connect 67 1 57 0;
#X connect 67 2 58 0;
#X connect 67 3 59 0;
#X connect 67 4 60 0;
#X connect 67 5 61 0;
#X connect 68 0 65 0;
#X connect 69 0 30 1;
#X connect 74 0 77 0;
#X connect 77 0 78 0;
#X connect 78 0 75 0;
