#N canvas 112 100 1269 751 10;
#X obj 26 -24 adc~;
#X obj 62 59 env~;
#X obj 69 129 vu 15 120 empty empty -1 -8 0 10 -66577 -1 1 0;
#X obj 65 92 - 90;
#X obj 520 634 dac~;
#X obj 517 589 *~;
#X msg 531 526 \$1 20;
#X obj 534 500 hsl 128 15 0 1 0 0 empty empty empty -2 -8 0 10 -262144
-1 -1 0 1;
#X floatatom 23 86 5 0 0 0 - - -;
#X obj 805 212 vd~ foo;
#X obj 806 118 osc~;
#X obj 806 147 *~ 1;
#X obj 806 178 +~ 1;
#X floatatom 807 88 5 0 0 0 - - -;
#X floatatom 847 115 5 0 0 0 - - -;
#X floatatom 850 156 5 0 0 0 - - -;
#X obj 1017 219 vd~ foo;
#X obj 1013 149 *~ 1;
#X obj 1013 180 +~ 1;
#X floatatom 1014 90 5 0 0 0 - - -;
#X floatatom 1089 118 5 0 0 0 - - -;
#X obj 1013 120 phasor~;
#X floatatom 1071 162 5 0 0 0 - - -;
#X obj 171 160 delread~ foo 300;
#X obj 170 114 delwrite~ foo 1000;
#X text 170 77 delay simple;
#X text 807 60 falanger;
#X text 1010 55 pitchshifter;
#X obj 425 126 delwrite~ bar 200;
#X obj 428 238 delread~ bar 50;
#X obj 379 184 *~ 0.8;
#X text 436 93 reverb;
#X obj 609 133 delwrite~ baz 10000;
#X obj 587 174 delread~ baz 10000;
#X text 618 105 looper de 10 segundos;
#X obj 532 554 line~;
#X obj 168 330 *~;
#X msg 182 267 \$1 20;
#X obj 185 241 hsl 128 15 0 1 0 0 empty empty empty -2 -8 0 10 -262144
-1 -1 0 1;
#X obj 183 295 line~;
#X floatatom 414 157 5 0 0 0 - - -;
#X floatatom 432 206 5 0 0 0 - - -;
#X obj 429 357 *~;
#X msg 443 294 \$1 20;
#X obj 446 268 hsl 128 15 0 1 0 0 empty empty empty -2 -8 0 10 -262144
-1 -1 0 1;
#X obj 444 322 line~;
#X obj 599 359 *~;
#X msg 613 296 \$1 20;
#X obj 616 270 hsl 128 15 0 1 0 0 empty empty empty -2 -8 0 10 -262144
-1 -1 0 1;
#X obj 614 324 line~;
#X obj 808 347 *~;
#X msg 822 284 \$1 20;
#X obj 825 258 hsl 128 15 0 1 0 0 empty empty empty -2 -8 0 10 -262144
-1 -1 0 1;
#X obj 823 312 line~;
#X obj 1017 345 *~;
#X msg 1031 282 \$1 20;
#X obj 1034 256 hsl 128 15 0 1 0 0 empty empty empty -2 -8 0 10 -262144
-1 -1 0 1;
#X obj 1032 310 line~;
#X obj 599 84 *~;
#X msg 614 41 \$1 20;
#X obj 617 22 hsl 128 15 0 1 0 0 empty empty empty -2 -8 0 10 -262144
-1 -1 0 1;
#X obj 614 63 line~;
#X connect 0 1 1 0;
#X connect 0 1 5 0;
#X connect 0 1 24 0;
#X connect 0 1 28 0;
#X connect 0 1 58 0;
#X connect 1 0 3 0;
#X connect 1 0 8 0;
#X connect 3 0 2 0;
#X connect 5 0 4 0;
#X connect 5 0 4 1;
#X connect 6 0 35 0;
#X connect 7 0 6 0;
#X connect 9 0 50 0;
#X connect 10 0 11 0;
#X connect 11 0 12 0;
#X connect 12 0 9 0;
#X connect 13 0 10 0;
#X connect 14 0 11 1;
#X connect 15 0 12 1;
#X connect 16 0 54 0;
#X connect 17 0 18 0;
#X connect 18 0 16 0;
#X connect 19 0 21 0;
#X connect 20 0 17 1;
#X connect 21 0 17 0;
#X connect 22 0 18 1;
#X connect 23 0 36 0;
#X connect 29 0 30 0;
#X connect 29 0 42 0;
#X connect 30 0 28 0;
#X connect 33 0 32 0;
#X connect 33 0 46 0;
#X connect 35 0 5 1;
#X connect 36 0 5 0;
#X connect 37 0 39 0;
#X connect 38 0 37 0;
#X connect 39 0 36 1;
#X connect 40 0 30 1;
#X connect 41 0 29 0;
#X connect 42 0 5 0;
#X connect 43 0 45 0;
#X connect 44 0 43 0;
#X connect 45 0 42 1;
#X connect 46 0 5 0;
#X connect 47 0 49 0;
#X connect 48 0 47 0;
#X connect 49 0 46 1;
#X connect 50 0 5 0;
#X connect 51 0 53 0;
#X connect 52 0 51 0;
#X connect 53 0 50 1;
#X connect 54 0 5 0;
#X connect 55 0 57 0;
#X connect 56 0 55 0;
#X connect 57 0 54 1;
#X connect 58 0 32 0;
#X connect 59 0 61 0;
#X connect 60 0 59 0;
#X connect 61 0 58 1;
