#N canvas 21 23 1419 805 10;
#X obj 50 63 adc~;
#X obj 52 162 vu 15 120 empty empty -1 -8 0 10 -66577 -1 1 0;
#X obj 50 90 env~;
#X obj 51 123 - 90;
#X obj 132 444 line~;
#X obj 116 470 *~;
#X msg 132 420 \$1 20;
#X obj 133 393 hsl 128 15 0 1 0 0 empty empty empty -2 -8 0 10 -262144
-1 -1 10300 1;
#X obj 117 527 dac~;
#X obj 26 566 spectrogram~;
#X obj 608 550 spectrogram~;
#X obj 390 238 *~ 20;
#X floatatom 418 199 5 0 0 0 - - -;
#X obj 393 285 clip~ -0.5 0.5;
#X obj 597 291 overdrive~;
#X floatatom 655 265 5 0 0 0 - - -;
#X obj 898 301 samphold~;
#X obj 970 306 phasor~;
#X floatatom 972 282 5 0 0 0 - - -;
#X obj 915 395 line~;
#X obj 899 421 *~;
#X msg 915 371 \$1 20;
#X obj 916 344 hsl 128 15 0 1 0 0 empty empty empty -2 -8 0 10 -262144
-1 -1 8300 1;
#X text 896 261 bitcrush;
#X obj 612 381 line~;
#X obj 596 407 *~;
#X msg 612 357 \$1 20;
#X obj 613 330 hsl 128 15 0 1 0 0 empty empty empty -2 -8 0 10 -262144
-1 -1 0 1;
#X obj 411 383 line~;
#X obj 395 409 *~;
#X msg 411 359 \$1 20;
#X obj 412 332 hsl 128 15 0 1 0 0 empty empty empty -2 -8 0 10 -262144
-1 -1 0 1;
#X text 597 230 overdrive;
#X text 377 173 distrosión armónica;
#X connect 0 0 2 0;
#X connect 0 0 9 0;
#X connect 0 0 11 0;
#X connect 0 0 16 0;
#X connect 0 0 14 0;
#X connect 2 0 3 0;
#X connect 3 0 1 0;
#X connect 4 0 5 1;
#X connect 5 0 8 0;
#X connect 5 0 8 1;
#X connect 6 0 4 0;
#X connect 7 0 6 0;
#X connect 11 0 13 0;
#X connect 12 0 11 1;
#X connect 13 0 29 0;
#X connect 14 0 25 0;
#X connect 15 0 14 1;
#X connect 16 0 20 0;
#X connect 17 0 16 1;
#X connect 18 0 17 0;
#X connect 19 0 20 1;
#X connect 20 0 10 0;
#X connect 20 0 5 0;
#X connect 21 0 19 0;
#X connect 22 0 21 0;
#X connect 24 0 25 1;
#X connect 25 0 10 0;
#X connect 25 0 5 0;
#X connect 26 0 24 0;
#X connect 27 0 26 0;
#X connect 28 0 29 1;
#X connect 29 0 10 0;
#X connect 29 0 5 0;
#X connect 30 0 28 0;
#X connect 31 0 30 0;
