#N canvas 34 23 1249 709 10;
#X obj 40 53 adc~;
#X obj 42 152 vu 15 120 empty empty -1 -8 0 10 -66577 -1 1 0;
#X obj 40 80 env~;
#X obj 41 113 - 90;
#X obj 1035 265 line~;
#X obj 1019 291 *~;
#X msg 1035 241 \$1 20;
#X obj 1036 214 hsl 128 15 0 1 0 0 empty empty empty -2 -8 0 10 -262144
-1 -1 0 1;
#X obj 40 511 spectrogram~;
#X obj 591 511 spectrogram~;
#X obj 415 170 lop~;
#X obj 623 186 hip~;
#X obj 829 190 bp~;
#X floatatom 438 149 5 0 0 0 - - -;
#X floatatom 643 165 5 0 0 0 - - -;
#X floatatom 837 167 5 0 0 0 - - -;
#X floatatom 873 165 5 0 0 0 - - -;
#X obj 1018 185 vcf~;
#X floatatom 1040 160 5 0 0 0 - - -;
#X obj 1025 89 osc~ 0.5;
#X obj 1028 110 *~ 300;
#X obj 1029 135 +~ 600;
#X obj 843 270 line~;
#X obj 827 296 *~;
#X msg 843 246 \$1 20;
#X obj 844 219 hsl 128 15 0 1 0 0 empty empty empty -2 -8 0 10 -262144
-1 -1 0 1;
#X obj 637 267 line~;
#X obj 621 293 *~;
#X msg 637 243 \$1 20;
#X obj 638 216 hsl 128 15 0 1 0 0 empty empty empty -2 -8 0 10 -262144
-1 -1 0 1;
#X obj 428 251 line~;
#X obj 412 277 *~;
#X msg 428 227 \$1 20;
#X obj 429 200 hsl 128 15 0 1 0 0 empty empty empty -2 -8 0 10 -262144
-1 -1 0 1;
#X obj 166 234 line~;
#X obj 150 260 *~;
#X msg 166 210 \$1 20;
#X obj 167 183 hsl 128 15 0 1 0 0 empty empty empty -2 -8 0 10 -262144
-1 -1 0 1;
#X obj 168 428 line~;
#X obj 152 454 *~;
#X msg 168 404 \$1 20;
#X obj 169 377 hsl 128 15 0 1 0 0 empty empty empty -2 -8 0 10 -262144
-1 -1 0 1;
#X obj 150 489 dac~;
#X connect 0 0 2 0;
#X connect 0 0 8 0;
#X connect 0 0 35 0;
#X connect 0 0 10 0;
#X connect 0 0 11 0;
#X connect 0 0 12 0;
#X connect 0 0 17 0;
#X connect 2 0 3 0;
#X connect 3 0 1 0;
#X connect 4 0 5 1;
#X connect 5 0 9 0;
#X connect 5 0 39 0;
#X connect 6 0 4 0;
#X connect 7 0 6 0;
#X connect 10 0 31 0;
#X connect 11 0 27 0;
#X connect 12 0 23 0;
#X connect 13 0 10 1;
#X connect 14 0 11 1;
#X connect 15 0 12 1;
#X connect 16 0 12 2;
#X connect 17 0 5 0;
#X connect 18 0 17 2;
#X connect 19 0 20 0;
#X connect 20 0 21 0;
#X connect 21 0 17 1;
#X connect 22 0 23 1;
#X connect 23 0 9 0;
#X connect 23 0 39 0;
#X connect 24 0 22 0;
#X connect 25 0 24 0;
#X connect 26 0 27 1;
#X connect 27 0 9 0;
#X connect 27 0 39 0;
#X connect 28 0 26 0;
#X connect 29 0 28 0;
#X connect 30 0 31 1;
#X connect 31 0 9 0;
#X connect 31 0 39 0;
#X connect 32 0 30 0;
#X connect 33 0 32 0;
#X connect 34 0 35 1;
#X connect 35 0 39 0;
#X connect 36 0 34 0;
#X connect 37 0 36 0;
#X connect 38 0 39 1;
#X connect 39 0 42 0;
#X connect 39 0 42 1;
#X connect 40 0 38 0;
#X connect 41 0 40 0;
