#N canvas 206 285 800 546 10;
#X obj 51 44 adc~;
#X obj 53 143 vu 15 120 empty empty -1 -8 0 10 -66577 -1 1 0;
#X obj 51 71 env~;
#X obj 52 104 - 90;
#X obj 142 454 line~;
#X obj 126 480 *~;
#X msg 142 430 \$1 20;
#X obj 143 403 hsl 128 15 0 1 0 0 empty empty empty -2 -8 0 10 -262144
-1 -1 0 1;
#X obj 127 537 dac~;
#X obj 318 300 spectrogram~;
#X obj 318 34 spectrogram~;
#X obj 140 213 *~;
#X obj 157 179 osc~;
#X floatatom 155 150 5 0 0 0 - - -;
#X text 126 89 ring mod;
#X connect 0 0 2 0;
#X connect 0 0 9 0;
#X connect 0 0 11 0;
#X connect 2 0 3 0;
#X connect 3 0 1 0;
#X connect 4 0 5 1;
#X connect 5 0 8 0;
#X connect 5 0 8 1;
#X connect 6 0 4 0;
#X connect 7 0 6 0;
#X connect 11 0 5 0;
#X connect 11 0 10 0;
#X connect 12 0 11 1;
#X connect 13 0 12 0;
