#N canvas 191 145 627 481 10;
#X msg 61 128 5;
#X msg 104 125 6;
#X floatatom 10 139 5 0 0 0 - - -;
#X obj 66 178 +;
#X floatatom 66 203 5 0 0 0 - - -;
#X obj 66 229 / 2;
#X floatatom 66 256 5 0 0 0 - - -;
#X obj 188 36 key;
#X floatatom 188 70 5 0 0 0 - - -;
#X text 241 33 a= 97 s=115 d= 100 f=102;
#X obj 188 99 select 97 115 100 102;
#X msg 189 133 110;
#X msg 222 132 220;
#X msg 257 131 330;
#X msg 295 132 440;
#X obj 480 255 dac~;
#X floatatom 334 132 5 0 0 0 - - -;
#X obj 10 -1 vsl 15 128 0 127 0 0 empty empty empty 0 -9 0 10 -262144
-1 -1 10300 1;
#X obj 473 133 bng 15 250 50 0 empty empty empty 17 7 0 10 -262144
-1 -1;
#X msg 465 62 0;
#X msg 503 63 1;
#X obj 436 62 tgl 15 0 empty empty empty 17 7 0 10 -262144 -1 -1 0
1;
#X obj 472 98 metro 500;
#X floatatom 543 63 5 0 0 0 - - -;
#X obj 474 173 click~;
#X floatatom 191 193 5 0 0 0 - - -;
#X obj 191 232 osc~;
#X obj 191 278 dac~;
#X connect 0 0 3 0;
#X connect 1 0 3 1;
#X connect 2 0 3 0;
#X connect 3 0 4 0;
#X connect 4 0 5 0;
#X connect 5 0 6 0;
#X connect 7 0 8 0;
#X connect 8 0 10 0;
#X connect 10 0 11 0;
#X connect 10 1 12 0;
#X connect 10 2 13 0;
#X connect 10 3 14 0;
#X connect 10 4 16 0;
#X connect 11 0 25 0;
#X connect 12 0 25 0;
#X connect 13 0 25 0;
#X connect 14 0 25 0;
#X connect 17 0 2 0;
#X connect 18 0 24 0;
#X connect 19 0 22 0;
#X connect 20 0 22 0;
#X connect 21 0 22 0;
#X connect 22 0 18 0;
#X connect 23 0 22 1;
#X connect 24 0 15 0;
#X connect 24 0 15 1;
#X connect 25 0 26 0;
#X connect 26 0 27 0;
#X connect 26 0 27 1;
