#N canvas 80 87 1223 852 10;
#X obj 50 279 notein;
#X floatatom 52 313 5 0 0 0 - - -;
#X floatatom 88 312 5 0 0 0 - - -;
#X obj 53 342 mtof;
#X floatatom 54 367 5 0 0 0 - - -;
#X obj 55 399 phasor~;
#X obj 56 442 *~;
#X obj 122 393 line~;
#X obj 109 339 / 127;
#X msg 121 368 \$1 20;
#X obj 450 202 notein;
#X obj 451 231 poly 4;
#X floatatom 450 263 5 0 0 0 - - -;
#X floatatom 489 266 5 0 0 0 - - -;
#X floatatom 534 261 5 0 0 0 - - -;
#X obj 453 300 pack 0 0 0;
#X obj 451 350 route 1 2 3 4;
#X obj 302 396 unpack 0 0;
#X floatatom 301 441 5 0 0 0 - - -;
#X floatatom 337 440 5 0 0 0 - - -;
#X obj 302 470 mtof;
#X floatatom 303 495 5 0 0 0 - - -;
#X obj 304 527 phasor~;
#X obj 305 570 *~;
#X obj 371 521 line~;
#X obj 358 467 / 127;
#X msg 370 496 \$1 20;
#X obj 413 390 unpack 0 0;
#X floatatom 412 435 5 0 0 0 - - -;
#X floatatom 448 434 5 0 0 0 - - -;
#X obj 413 464 mtof;
#X floatatom 414 489 5 0 0 0 - - -;
#X obj 415 521 phasor~;
#X obj 416 564 *~;
#X obj 482 515 line~;
#X obj 469 461 / 127;
#X msg 481 490 \$1 20;
#X obj 531 396 unpack 0 0;
#X floatatom 530 441 5 0 0 0 - - -;
#X floatatom 566 440 5 0 0 0 - - -;
#X obj 531 470 mtof;
#X floatatom 532 495 5 0 0 0 - - -;
#X obj 533 527 phasor~;
#X obj 534 570 *~;
#X obj 600 521 line~;
#X obj 587 467 / 127;
#X msg 599 496 \$1 20;
#X obj 648 387 unpack 0 0;
#X floatatom 647 432 5 0 0 0 - - -;
#X floatatom 683 431 5 0 0 0 - - -;
#X obj 648 461 mtof;
#X floatatom 649 486 5 0 0 0 - - -;
#X obj 650 518 phasor~;
#X obj 651 561 *~;
#X obj 704 518 line~;
#X obj 704 458 / 127;
#X msg 703 493 \$1 20;
#X obj 899 230 notein;
#X obj 901 275 stripnote;
#X floatatom 904 308 5 0 0 0 - - -;
#X obj 904 339 select 64 65;
#X obj 907 382 click~;
#X obj 910 480 *~ 30;
#X obj 938 427 noise~;
#X obj 966 484 *~;
#X obj 986 428 vline~;
#X msg 983 380 0 \, 1 20 \, 0 20 40;
#X obj 940 543 *~ 1;
#X text -46 27 MIDI 1) conecta controlador MIDI 2) reinicia PD 3) En
Media/Preferencias de MIDI \, busca el controlador 4) Revisa que todo
funcione en Media/Probar Audio y MIDI;
#X text 376 176 nota y velocidad con polifonía;
#X text 24 255 nota y velocidad;
#X text 836 197 ataque de la nota como evento discreto;
#X obj 127 704 ctlin;
#X floatatom 126 766 5 0 0 0 - - -;
#X floatatom 140 735 5 0 0 0 - - -;
#X text 87 680 control continuo;
#X obj 361 712 ctlin 60;
#X floatatom 360 775 5 0 0 0 - - -;
#X floatatom 478 779 5 0 0 0 - - -;
#X obj 479 716 ctlin 61;
#X text 360 688 aislando el control 60 y el control 61;
#X connect 0 0 1 0;
#X connect 0 1 2 0;
#X connect 1 0 3 0;
#X connect 2 0 8 0;
#X connect 3 0 4 0;
#X connect 4 0 5 0;
#X connect 5 0 6 0;
#X connect 7 0 6 1;
#X connect 8 0 9 0;
#X connect 9 0 7 0;
#X connect 10 0 11 0;
#X connect 10 1 11 1;
#X connect 11 0 12 0;
#X connect 11 1 13 0;
#X connect 11 2 14 0;
#X connect 12 0 15 0;
#X connect 13 0 15 1;
#X connect 14 0 15 2;
#X connect 15 0 16 0;
#X connect 16 0 17 0;
#X connect 16 1 27 0;
#X connect 16 2 37 0;
#X connect 16 3 47 0;
#X connect 17 0 18 0;
#X connect 17 1 19 0;
#X connect 18 0 20 0;
#X connect 19 0 25 0;
#X connect 20 0 21 0;
#X connect 21 0 22 0;
#X connect 22 0 23 0;
#X connect 24 0 23 1;
#X connect 25 0 26 0;
#X connect 26 0 24 0;
#X connect 27 0 28 0;
#X connect 27 1 29 0;
#X connect 28 0 30 0;
#X connect 29 0 35 0;
#X connect 30 0 31 0;
#X connect 31 0 32 0;
#X connect 32 0 33 0;
#X connect 34 0 33 1;
#X connect 35 0 36 0;
#X connect 36 0 34 0;
#X connect 37 0 38 0;
#X connect 37 1 39 0;
#X connect 38 0 40 0;
#X connect 39 0 45 0;
#X connect 40 0 41 0;
#X connect 41 0 42 0;
#X connect 42 0 43 0;
#X connect 44 0 43 1;
#X connect 45 0 46 0;
#X connect 46 0 44 0;
#X connect 47 0 48 0;
#X connect 47 1 49 0;
#X connect 48 0 50 0;
#X connect 49 0 55 0;
#X connect 50 0 51 0;
#X connect 51 0 52 0;
#X connect 52 0 53 0;
#X connect 54 0 53 1;
#X connect 55 0 56 0;
#X connect 56 0 54 0;
#X connect 57 0 58 0;
#X connect 57 1 58 1;
#X connect 58 0 59 0;
#X connect 59 0 60 0;
#X connect 60 0 61 0;
#X connect 60 1 66 0;
#X connect 61 0 62 0;
#X connect 62 0 67 0;
#X connect 63 0 64 0;
#X connect 64 0 67 0;
#X connect 65 0 64 1;
#X connect 66 0 65 0;
#X connect 72 0 73 0;
#X connect 72 1 74 0;
#X connect 76 0 77 0;
#X connect 79 0 78 0;
